{
	"asset":{
		"generator":"Khronos glTF Blender I/O v5.0.21",
		"version":"2.0"
	},
	"extensionsUsed":[
		"KHR_lights_punctual"
	],
	"extensionsRequired":[
		"KHR_lights_punctual"
	],
	"extensions":{
		"KHR_lights_punctual":{
			"lights":[
				{
					"color":[
						1,
						1,
						1
					],
					"intensity":543.5141306588226,
					"type":"point",
					"name":"Point"
				}
			]
		}
	},
	"scene":0,
	"scenes":[
		{
			"name":"Scene",
			"nodes":[
				0,
				1
			]
		}
	],
	"nodes":[
		{
			"mesh":0,
			"name":"tripo_node_982dbb67-bbff-4e12-a38b-8e96d5251793"
		},
		{
			"extensions":{
				"KHR_lights_punctual":{
					"light":0
				}
			},
			"name":"Point",
			"rotation":[
				-0.7071068286895752,
				0,
				0,
				0.7071068286895752
			],
			"scale":[
				14.689781188964844,
				14.689780235290527,
				14.689780235290527
			],
			"translation":[
				-0.08961798250675201,
				4.382838249206543,
				0.0648023933172226
			]
		}
	],
	"materials":[
		{
			"name":"tripo_mat_982dbb67-bbff-4e12-a38b-8e96d5251793",
			"pbrMetallicRoughness":{
				"baseColorTexture":{
					"index":0
				},
				"metallicFactor":0,
				"roughnessFactor":0.8999999761581421
			}
		}
	],
	"meshes":[
		{
			"name":"tripo_mesh_982dbb67-bbff-4e12-a38b-8e96d5251793",
			"primitives":[
				{
					"attributes":{
						"POSITION":0,
						"NORMAL":1,
						"TEXCOORD_0":2
					},
					"indices":3,
					"material":0
				}
			]
		}
	],
	"textures":[
		{
			"sampler":0,
			"source":0
		}
	],
	"images":[
		{
			"mimeType":"image/jpeg",
			"name":"denimjeans3dmodel_basecolor",
			"uri":"denimjeans3dmodel_basecolor.jpg"
		}
	],
	"accessors":[
		{
			"bufferView":0,
			"componentType":5126,
			"count":38384,
			"max":[
				1.1474157571792603,
				2.0445752143859863,
				1.2411257028579712
			],
			"min":[
				-1.15746009349823,
				-0.12282657623291016,
				-0.8844305872917175
			],
			"type":"VEC3"
		},
		{
			"bufferView":1,
			"componentType":5126,
			"count":38384,
			"type":"VEC3"
		},
		{
			"bufferView":2,
			"componentType":5126,
			"count":38384,
			"type":"VEC2"
		},
		{
			"bufferView":3,
			"componentType":5123,
			"count":38418,
			"type":"SCALAR"
		}
	],
	"bufferViews":[
		{
			"buffer":0,
			"byteLength":460608,
			"byteOffset":0,
			"target":34962
		},
		{
			"buffer":0,
			"byteLength":460608,
			"byteOffset":460608,
			"target":34962
		},
		{
			"buffer":0,
			"byteLength":307072,
			"byteOffset":921216,
			"target":34962
		},
		{
			"buffer":0,
			"byteLength":76836,
			"byteOffset":1228288,
			"target":34963
		}
	],
	"samplers":[
		{
			"magFilter":9729,
			"minFilter":9987
		}
	],
	"buffers":[
		{
			"byteLength":1305124,
			"uri":"jeans_1model.bin"
		}
	]
}
